<mxfile host="www.draw.io" modified="2019-10-31T02:30:12.290Z" agent="Mozilla/5.0 (Windows NT 10.0; Win64; x64) AppleWebKit/537.36 (KHTML, like Gecko) Chrome/77.0.3865.120 Safari/537.36" etag="r4HrwfWGJGeFUHZ5hENK" version="12.1.9" type="github" pages="1">
  <diagram id="G9VgIi3-Gg3Emp0XDBHY" name="Page-1">
    <mxGraphModel dx="920" dy="514" grid="1" gridSize="10" guides="1" tooltips="1" connect="1" arrows="1" fold="1" page="1" pageScale="1" pageWidth="1654" pageHeight="2336" math="0" shadow="0">
      <root>
        <mxCell id="0"/>
        <mxCell id="1" parent="0"/>
        <mxCell id="3Sa0VTjESd84tE5Ti23U-7" style="edgeStyle=orthogonalEdgeStyle;rounded=0;orthogonalLoop=1;jettySize=auto;html=1;exitX=0.5;exitY=0;exitDx=0;exitDy=0;entryX=0;entryY=0.5;entryDx=0;entryDy=0;" edge="1" parent="1" source="3Sa0VTjESd84tE5Ti23U-9" target="3Sa0VTjESd84tE5Ti23U-26">
          <mxGeometry relative="1" as="geometry"/>
        </mxCell>
        <mxCell id="3Sa0VTjESd84tE5Ti23U-34" style="edgeStyle=orthogonalEdgeStyle;rounded=0;orthogonalLoop=1;jettySize=auto;html=1;exitX=0.5;exitY=0;exitDx=0;exitDy=0;entryX=0.5;entryY=0;entryDx=0;entryDy=0;" edge="1" parent="1" source="3Sa0VTjESd84tE5Ti23U-9" target="3Sa0VTjESd84tE5Ti23U-20">
          <mxGeometry relative="1" as="geometry"/>
        </mxCell>
        <mxCell id="3Sa0VTjESd84tE5Ti23U-9" value="&lt;font style=&quot;font-size: 17px&quot;&gt;shading&lt;br&gt;encoder&lt;/font&gt;" style="shape=trapezoid;perimeter=trapezoidPerimeter;whiteSpace=wrap;html=1;rotation=0;direction=south;fillColor=#f8cecc;strokeColor=#b85450;" vertex="1" parent="1">
          <mxGeometry x="592.5" y="943" width="100" height="155" as="geometry"/>
        </mxCell>
        <mxCell id="3Sa0VTjESd84tE5Ti23U-10" style="edgeStyle=orthogonalEdgeStyle;rounded=0;orthogonalLoop=1;jettySize=auto;html=1;exitX=0.5;exitY=1;exitDx=0;exitDy=0;entryX=0;entryY=0.5;entryDx=0;entryDy=0;" edge="1" parent="1" source="3Sa0VTjESd84tE5Ti23U-11" target="3Sa0VTjESd84tE5Ti23U-18">
          <mxGeometry relative="1" as="geometry"/>
        </mxCell>
        <mxCell id="3Sa0VTjESd84tE5Ti23U-11" value="&lt;font style=&quot;font-size: 17px&quot;&gt;shading&lt;br&gt;decoder&lt;/font&gt;" style="shape=trapezoid;perimeter=trapezoidPerimeter;whiteSpace=wrap;html=1;rotation=0;direction=north;fillColor=#f8cecc;strokeColor=#b85450;" vertex="1" parent="1">
          <mxGeometry x="846.5" y="943" width="100" height="155" as="geometry"/>
        </mxCell>
        <mxCell id="3Sa0VTjESd84tE5Ti23U-13" style="edgeStyle=orthogonalEdgeStyle;rounded=0;orthogonalLoop=1;jettySize=auto;html=1;exitX=1;exitY=0.5;exitDx=0;exitDy=0;entryX=0.5;entryY=1;entryDx=0;entryDy=0;" edge="1" parent="1" source="3Sa0VTjESd84tE5Ti23U-14" target="3Sa0VTjESd84tE5Ti23U-9">
          <mxGeometry relative="1" as="geometry"/>
        </mxCell>
        <mxCell id="3Sa0VTjESd84tE5Ti23U-14" value="&lt;font style=&quot;font-size: 20px&quot;&gt;input&lt;/font&gt;" style="rounded=1;whiteSpace=wrap;html=1;fillColor=#d5e8d4;strokeColor=#82b366;" vertex="1" parent="1">
          <mxGeometry x="440" y="998.5" width="90" height="43" as="geometry"/>
        </mxCell>
        <mxCell id="3Sa0VTjESd84tE5Ti23U-18" value="&lt;font style=&quot;font-size: 17px&quot;&gt;shading&lt;/font&gt;" style="rounded=1;whiteSpace=wrap;html=1;fillColor=#f8cecc;strokeColor=#b85450;" vertex="1" parent="1">
          <mxGeometry x="1012" y="998.5" width="95" height="44" as="geometry"/>
        </mxCell>
        <mxCell id="3Sa0VTjESd84tE5Ti23U-37" style="edgeStyle=orthogonalEdgeStyle;rounded=0;orthogonalLoop=1;jettySize=auto;html=1;exitX=0.5;exitY=1;exitDx=0;exitDy=0;entryX=0.5;entryY=0;entryDx=0;entryDy=0;" edge="1" parent="1" source="3Sa0VTjESd84tE5Ti23U-20" target="3Sa0VTjESd84tE5Ti23U-35">
          <mxGeometry relative="1" as="geometry"/>
        </mxCell>
        <mxCell id="3Sa0VTjESd84tE5Ti23U-50" style="edgeStyle=orthogonalEdgeStyle;rounded=0;orthogonalLoop=1;jettySize=auto;html=1;exitX=1;exitY=0.5;exitDx=0;exitDy=0;entryX=0;entryY=0.5;entryDx=0;entryDy=0;" edge="1" parent="1" source="3Sa0VTjESd84tE5Ti23U-20" target="3Sa0VTjESd84tE5Ti23U-39">
          <mxGeometry relative="1" as="geometry"/>
        </mxCell>
        <mxCell id="3Sa0VTjESd84tE5Ti23U-20" value="&lt;span style=&quot;font-size: 18px&quot;&gt;feature1&lt;/span&gt;" style="rounded=0;whiteSpace=wrap;html=1;fillColor=#dae8fc;strokeColor=#6c8ebf;" vertex="1" parent="1">
          <mxGeometry x="693" y="1113.5" width="68" height="32" as="geometry"/>
        </mxCell>
        <mxCell id="3Sa0VTjESd84tE5Ti23U-25" style="edgeStyle=orthogonalEdgeStyle;rounded=0;orthogonalLoop=1;jettySize=auto;html=1;exitX=1;exitY=0.5;exitDx=0;exitDy=0;entryX=0.5;entryY=0;entryDx=0;entryDy=0;" edge="1" parent="1" source="3Sa0VTjESd84tE5Ti23U-26" target="3Sa0VTjESd84tE5Ti23U-11">
          <mxGeometry relative="1" as="geometry"/>
        </mxCell>
        <mxCell id="3Sa0VTjESd84tE5Ti23U-26" value="&lt;font color=&quot;#000000&quot; style=&quot;font-size: 12px&quot;&gt;concat&lt;/font&gt;" style="ellipse;whiteSpace=wrap;html=1;aspect=fixed;fillColor=#f9f7ed;strokeColor=#36393d;" vertex="1" parent="1">
          <mxGeometry x="750" y="1001" width="39" height="39" as="geometry"/>
        </mxCell>
        <mxCell id="3Sa0VTjESd84tE5Ti23U-28" style="edgeStyle=orthogonalEdgeStyle;rounded=0;orthogonalLoop=1;jettySize=auto;html=1;exitX=0;exitY=0.5;exitDx=0;exitDy=0;entryX=1;entryY=0.5;entryDx=0;entryDy=0;strokeColor=#000000;fontColor=#FF3399;" edge="1" parent="1">
          <mxGeometry relative="1" as="geometry">
            <Array as="points">
              <mxPoint x="643" y="937.5"/>
              <mxPoint x="897" y="937.5"/>
            </Array>
            <mxPoint x="642" y="958.6666666666667" as="sourcePoint"/>
            <mxPoint x="897" y="958.6666666666667" as="targetPoint"/>
          </mxGeometry>
        </mxCell>
        <mxCell id="3Sa0VTjESd84tE5Ti23U-29" style="edgeStyle=orthogonalEdgeStyle;rounded=0;orthogonalLoop=1;jettySize=auto;html=1;exitX=0;exitY=0.75;exitDx=0;exitDy=0;entryX=1;entryY=0.75;entryDx=0;entryDy=0;strokeColor=#000000;fontColor=#FF3399;" edge="1" parent="1">
          <mxGeometry relative="1" as="geometry">
            <Array as="points">
              <mxPoint x="621" y="927.5"/>
              <mxPoint x="919" y="927.5"/>
            </Array>
            <mxPoint x="620.3333333333335" y="950.3333333333335" as="sourcePoint"/>
            <mxPoint x="918.666666666667" y="950.3333333333335" as="targetPoint"/>
          </mxGeometry>
        </mxCell>
        <mxCell id="3Sa0VTjESd84tE5Ti23U-38" style="edgeStyle=orthogonalEdgeStyle;rounded=0;orthogonalLoop=1;jettySize=auto;html=1;exitX=0.5;exitY=1;exitDx=0;exitDy=0;entryX=0.5;entryY=0;entryDx=0;entryDy=0;" edge="1" parent="1" source="3Sa0VTjESd84tE5Ti23U-35" target="3Sa0VTjESd84tE5Ti23U-36">
          <mxGeometry relative="1" as="geometry"/>
        </mxCell>
        <mxCell id="3Sa0VTjESd84tE5Ti23U-46" style="edgeStyle=orthogonalEdgeStyle;rounded=0;orthogonalLoop=1;jettySize=auto;html=1;exitX=1;exitY=0.5;exitDx=0;exitDy=0;entryX=0;entryY=0.5;entryDx=0;entryDy=0;" edge="1" parent="1" source="3Sa0VTjESd84tE5Ti23U-35" target="3Sa0VTjESd84tE5Ti23U-40">
          <mxGeometry relative="1" as="geometry"/>
        </mxCell>
        <mxCell id="3Sa0VTjESd84tE5Ti23U-35" value="&lt;span style=&quot;font-size: 18px&quot;&gt;feature2&lt;/span&gt;" style="rounded=0;whiteSpace=wrap;html=1;fillColor=#dae8fc;strokeColor=#6c8ebf;" vertex="1" parent="1">
          <mxGeometry x="693" y="1195.5" width="68" height="32" as="geometry"/>
        </mxCell>
        <mxCell id="3Sa0VTjESd84tE5Ti23U-44" style="edgeStyle=orthogonalEdgeStyle;rounded=0;orthogonalLoop=1;jettySize=auto;html=1;exitX=1;exitY=0.5;exitDx=0;exitDy=0;entryX=0;entryY=0.5;entryDx=0;entryDy=0;" edge="1" parent="1" source="3Sa0VTjESd84tE5Ti23U-36" target="3Sa0VTjESd84tE5Ti23U-43">
          <mxGeometry relative="1" as="geometry"/>
        </mxCell>
        <mxCell id="3Sa0VTjESd84tE5Ti23U-36" value="&lt;span style=&quot;font-size: 18px&quot;&gt;feature3&lt;/span&gt;" style="rounded=0;whiteSpace=wrap;html=1;fillColor=#dae8fc;strokeColor=#6c8ebf;" vertex="1" parent="1">
          <mxGeometry x="693" y="1280" width="68" height="32" as="geometry"/>
        </mxCell>
        <mxCell id="3Sa0VTjESd84tE5Ti23U-52" style="edgeStyle=orthogonalEdgeStyle;rounded=0;orthogonalLoop=1;jettySize=auto;html=1;exitX=1;exitY=0.5;exitDx=0;exitDy=0;entryX=0;entryY=0.5;entryDx=0;entryDy=0;" edge="1" parent="1" source="3Sa0VTjESd84tE5Ti23U-39" target="3Sa0VTjESd84tE5Ti23U-41">
          <mxGeometry relative="1" as="geometry"/>
        </mxCell>
        <mxCell id="3Sa0VTjESd84tE5Ti23U-39" value="&lt;font color=&quot;#000000&quot; style=&quot;font-size: 12px&quot;&gt;concat&lt;/font&gt;" style="ellipse;whiteSpace=wrap;html=1;aspect=fixed;fillColor=#f9f7ed;strokeColor=#36393d;" vertex="1" parent="1">
          <mxGeometry x="800" y="1110" width="39" height="39" as="geometry"/>
        </mxCell>
        <mxCell id="3Sa0VTjESd84tE5Ti23U-48" style="edgeStyle=orthogonalEdgeStyle;rounded=0;orthogonalLoop=1;jettySize=auto;html=1;exitX=1;exitY=0.5;exitDx=0;exitDy=0;" edge="1" parent="1" source="3Sa0VTjESd84tE5Ti23U-40">
          <mxGeometry relative="1" as="geometry">
            <mxPoint x="870.5882352941178" y="1211.8823529411766" as="targetPoint"/>
          </mxGeometry>
        </mxCell>
        <mxCell id="3Sa0VTjESd84tE5Ti23U-40" value="&lt;font color=&quot;#000000&quot; style=&quot;font-size: 12px&quot;&gt;concat&lt;/font&gt;" style="ellipse;whiteSpace=wrap;html=1;aspect=fixed;fillColor=#f9f7ed;strokeColor=#36393d;" vertex="1" parent="1">
          <mxGeometry x="800" y="1192" width="39" height="39" as="geometry"/>
        </mxCell>
        <mxCell id="3Sa0VTjESd84tE5Ti23U-51" style="edgeStyle=orthogonalEdgeStyle;rounded=0;orthogonalLoop=1;jettySize=auto;html=1;exitX=1;exitY=0.5;exitDx=0;exitDy=0;entryX=0.5;entryY=1;entryDx=0;entryDy=0;" edge="1" parent="1" source="3Sa0VTjESd84tE5Ti23U-41" target="3Sa0VTjESd84tE5Ti23U-26">
          <mxGeometry relative="1" as="geometry">
            <Array as="points">
              <mxPoint x="958" y="1130"/>
              <mxPoint x="958" y="1100"/>
              <mxPoint x="769" y="1100"/>
            </Array>
          </mxGeometry>
        </mxCell>
        <mxCell id="3Sa0VTjESd84tE5Ti23U-41" value="&lt;span style=&quot;font-size: 18px&quot;&gt;conv1&lt;/span&gt;" style="rounded=0;whiteSpace=wrap;html=1;fillColor=#dae8fc;strokeColor=#6c8ebf;" vertex="1" parent="1">
          <mxGeometry x="870" y="1113.5" width="68" height="32" as="geometry"/>
        </mxCell>
        <mxCell id="3Sa0VTjESd84tE5Ti23U-49" style="edgeStyle=orthogonalEdgeStyle;rounded=0;orthogonalLoop=1;jettySize=auto;html=1;exitX=1;exitY=0.5;exitDx=0;exitDy=0;entryX=0.5;entryY=1;entryDx=0;entryDy=0;" edge="1" parent="1" source="3Sa0VTjESd84tE5Ti23U-42" target="3Sa0VTjESd84tE5Ti23U-39">
          <mxGeometry relative="1" as="geometry"/>
        </mxCell>
        <mxCell id="3Sa0VTjESd84tE5Ti23U-42" value="&lt;span style=&quot;font-size: 18px&quot;&gt;conv2&lt;/span&gt;" style="rounded=0;whiteSpace=wrap;html=1;fillColor=#dae8fc;strokeColor=#6c8ebf;" vertex="1" parent="1">
          <mxGeometry x="870" y="1195.5" width="68" height="32" as="geometry"/>
        </mxCell>
        <mxCell id="3Sa0VTjESd84tE5Ti23U-45" style="edgeStyle=orthogonalEdgeStyle;rounded=0;orthogonalLoop=1;jettySize=auto;html=1;exitX=1;exitY=0.5;exitDx=0;exitDy=0;entryX=0.5;entryY=1;entryDx=0;entryDy=0;" edge="1" parent="1" source="3Sa0VTjESd84tE5Ti23U-43" target="3Sa0VTjESd84tE5Ti23U-40">
          <mxGeometry relative="1" as="geometry"/>
        </mxCell>
        <mxCell id="3Sa0VTjESd84tE5Ti23U-43" value="&lt;span style=&quot;font-size: 18px&quot;&gt;conv3&lt;/span&gt;" style="rounded=0;whiteSpace=wrap;html=1;fillColor=#dae8fc;strokeColor=#6c8ebf;" vertex="1" parent="1">
          <mxGeometry x="793" y="1280" width="68" height="32" as="geometry"/>
        </mxCell>
      </root>
    </mxGraphModel>
  </diagram>
</mxfile>
